<?xml version="1.0" standalone="no"?>
<!DOCTYPE svg PUBLIC "-//W3C//DTD SVG 20010904//EN"
 "http://www.w3.org/TR/2001/REC-SVG-20010904/DTD/svg10.dtd">
<svg version="1.0" xmlns="http://www.w3.org/2000/svg"
 width="521.000000pt" height="111.000000pt" viewBox="0 0 521.000000 111.000000"
 preserveAspectRatio="xMidYMid meet">

<g transform="translate(0.000000,111.000000) scale(0.100000,-0.100000)"
fill="#000000" stroke="none">
<path d="M517 1050 c-26 -16 -146 -128 -267 -247 -203 -201 -220 -221 -220
-252 0 -32 19 -54 222 -258 122 -122 236 -229 254 -238 124 -58 244 60 190
188 -7 18 -68 87 -135 155 -92 93 -121 129 -121 148 0 20 33 60 139 169 147
149 163 176 146 242 -15 62 -84 123 -138 123 -12 0 -44 -13 -70 -30z"/>
<path d="M4580 1041 c-37 -19 -77 -69 -86 -108 -16 -62 2 -92 147 -239 80 -82
139 -149 139 -160 0 -29 -26 -61 -134 -169 -118 -119 -136 -145 -136 -205 0
-106 106 -171 204 -125 18 9 132 116 254 238 236 237 241 244 204 298 -29 44
-445 444 -485 467 -46 27 -62 27 -107 3z"/>
<path d="M780 770 c0 -16 7 -20 30 -20 l30 0 0 -204 0 -205 -27 -3 c-17 -2
-29 -10 -31 -21 -3 -15 6 -17 83 -17 77 0 86 2 83 18 -2 11 -14 18 -36 20
l-32 3 0 180 c0 99 3 178 8 175 4 -2 43 -77 87 -165 105 -213 98 -214 209 7
l85 167 0 -182 1 -183 -30 0 c-23 0 -30 -4 -30 -20 0 -19 7 -20 95 -20 88 0
95 1 95 20 0 16 -7 20 -30 20 l-30 0 0 204 0 205 32 3 c22 2 34 9 36 21 3 15
-5 17 -67 17 l-71 0 -85 -170 c-47 -93 -87 -170 -90 -170 -3 0 -43 77 -90 170
l-85 170 -70 0 c-63 0 -70 -2 -70 -20z"/>
<path d="M2722 773 c2 -12 14 -19 36 -21 l32 -3 0 -204 0 -204 -32 -3 c-22 -2
-34 -9 -36 -21 -3 -15 7 -17 102 -17 99 0 106 1 106 20 0 17 -7 20 -40 20
l-40 0 0 84 0 83 87 7 c100 7 140 26 166 76 39 75 -1 167 -82 190 -20 5 -96
10 -169 10 -122 0 -133 -2 -130 -17z m293 -48 c37 -37 35 -106 -4 -146 -27
-26 -36 -29 -95 -29 l-66 0 0 100 0 100 70 0 c62 0 74 -3 95 -25z"/>
<path d="M3590 705 c0 -55 0 -55 -31 -55 -24 0 -30 -4 -27 -17 2 -11 14 -19
31 -21 l27 -3 0 -135 c0 -132 1 -136 26 -161 22 -22 32 -25 77 -20 54 5 87 31
87 68 0 30 -33 23 -52 -11 -18 -31 -45 -39 -66 -18 -8 8 -12 55 -12 145 l0
132 57 3 c46 2 59 7 61 21 3 15 -5 17 -57 17 l-61 0 0 55 c0 54 0 55 -30 55
-30 0 -30 -1 -30 -55z"/>
<path d="M1540 647 c-31 -10 -35 -17 -38 -49 -2 -29 0 -38 13 -38 8 0 20 11
27 24 16 37 60 52 108 37 43 -13 60 -35 60 -75 0 -25 -2 -26 -65 -26 -109 0
-167 -37 -169 -109 -1 -51 19 -86 59 -106 44 -20 93 -19 138 4 29 15 37 16 37
5 0 -10 16 -14 61 -14 52 0 60 2 57 18 -2 10 -14 18 -31 20 l-27 3 0 112 c0
121 -8 147 -52 180 -34 25 -127 33 -178 14z m170 -216 c0 -69 -27 -101 -85
-101 -35 0 -48 5 -64 26 -24 30 -26 55 -10 87 18 33 28 37 97 37 l62 0 0 -49z"/>
<path d="M1975 650 c-105 -43 -129 -233 -41 -319 49 -47 115 -54 169 -17 l37
25 0 -40 c0 -57 -23 -95 -65 -109 -55 -18 -125 8 -125 47 0 7 -9 13 -20 13
-16 0 -20 -7 -20 -35 0 -42 20 -55 100 -62 70 -7 118 8 156 48 l29 30 3 190 3
189 30 0 c22 0 29 5 29 20 0 18 -7 20 -60 20 -53 0 -60 -2 -60 -20 0 -18 -2
-18 -36 5 -38 26 -90 32 -129 15z m116 -40 c32 -18 49 -64 49 -135 0 -101 -30
-145 -100 -145 -72 0 -111 109 -80 222 17 59 77 86 131 58z"/>
<path d="M2415 646 c-42 -18 -83 -69 -91 -112 -10 -57 1 -142 22 -171 40 -54
70 -68 142 -68 75 1 113 19 138 66 19 37 18 49 -5 49 -11 0 -28 -15 -40 -35
-25 -43 -63 -60 -111 -48 -42 10 -80 62 -80 109 l0 34 130 0 c130 0 130 0 130
24 0 120 -124 200 -235 152z m124 -43 c16 -16 32 -43 36 -60 l7 -33 -97 0 -97
0 6 33 c7 39 57 87 91 87 14 0 38 -12 54 -27z"/>
<path d="M3245 646 c-42 -18 -83 -69 -91 -112 -10 -57 1 -142 22 -171 40 -54
70 -68 142 -68 75 1 113 19 138 66 19 37 18 49 -5 49 -11 0 -28 -15 -40 -35
-25 -43 -63 -60 -111 -48 -42 10 -80 62 -80 109 l0 34 130 0 c130 0 130 0 130
24 0 120 -124 200 -235 152z m124 -43 c16 -16 32 -43 36 -60 l7 -33 -97 0 -97
0 6 33 c7 39 57 87 91 87 14 0 38 -12 54 -27z"/>
<path d="M3930 649 c-66 -28 -103 -90 -103 -174 0 -142 113 -221 243 -169 37
15 80 65 80 93 0 24 -40 10 -55 -19 -20 -39 -68 -64 -110 -56 -46 9 -76 46
-82 100 l-6 46 133 0 133 0 -7 42 c-9 52 -32 94 -68 121 -31 23 -120 32 -158
16z m94 -29 c28 -10 50 -41 60 -82 l6 -28 -95 0 c-92 0 -95 1 -95 23 1 31 23
67 51 83 29 16 40 17 73 4z"/>
<path d="M4384 641 c-18 -11 -34 -25 -37 -33 -3 -7 -6 -1 -6 15 -1 26 -2 27
-61 27 -53 0 -60 -2 -60 -20 0 -16 7 -20 30 -20 l30 0 0 -134 0 -135 -27 -3
c-17 -2 -29 -10 -31 -20 -3 -16 7 -18 93 -18 86 0 96 2 93 18 -2 11 -14 18
-36 20 l-32 3 0 100 c0 111 14 155 54 165 39 9 70 0 81 -23 5 -13 18 -23 27
-23 15 0 18 9 18 44 0 37 -4 45 -22 50 -42 11 -83 6 -114 -13z"/>
</g>
</svg>
