<!--?xml version="1.0" standalone="no"?-->

<svg version="1.0" xmlns="http://www.w3.org/2000/svg" viewBox="0 0 300.000000 229.000000" preserveAspectRatio="xMidYMid meet">
<g transform="translate(0.000000,229.000000) scale(0.100000,-0.100000)" fill="#1F1E21" stroke="none">
<path class="node" id="node1" d="M2195 2189 c-17 -5 -49 -23 -70 -42 -22 -18 -71 -54 -110 -79 -38
-26 -101 -70 -140 -98 -38 -29 -88 -61 -110 -71 -30 -14 -34 -19 -18 -19 12 0
25 -5 29 -11 4 -6 16 3 31 24 14 20 44 46 68 58 36 19 46 21 59 10 24 -20 20
-52 -23 -158 -49 -122 -63 -180 -51 -219 l8 -29 1 37 c1 56 28 114 94 206 64
90 80 126 97 214 6 32 20 68 30 80 l19 23 1 -22 c0 -18 6 -23 24 -23 44 0 56
9 49 41 -5 25 -2 29 16 29 16 0 21 -6 21 -29 0 -16 7 -34 15 -41 23 -19 18
-87 -11 -155 -14 -33 -35 -85 -46 -115 -11 -30 -43 -86 -71 -125 -65 -90 -97
-165 -96 -230 1 -44 2 -47 11 -25 6 14 33 43 61 65 126 100 190 145 206 145 9
0 28 -10 40 -22 21 -19 23 -27 19 -97 -7 -118 -68 -224 -171 -297 -97 -70
-164 -145 -182 -204 -4 -15 5 -7 23 22 40 61 76 86 98 67 14 -11 16 -28 11
-104 l-6 -90 15 65 c34 155 65 220 173 368 43 59 91 131 106 160 25 48 27 60
23 128 -4 64 -9 80 -31 101 l-26 26 -36 -27 c-19 -15 -43 -38 -51 -52 -9 -13
-23 -24 -31 -24 -22 0 -12 68 27 175 43 116 47 210 13 247 -13 13 -23 32 -23
41 0 25 -32 87 -44 86 -6 0 -25 -5 -41 -10z"></path>
<path class="node" id="node2" d="M1698 1873 c7 -3 16 -2 19 1 4 3 -2 6 -13 5 -11 0 -14 -3 -6 -6z"></path>
<path class="node" id="node3" d="M1583 1859 c-117 -19 -216 -75 -337 -189 -121 -113 -237 -174 -399
-208 -98 -21 -234 -82 -244 -109 -10 -26 29 -91 91 -153 54 -54 146 -122 180
-133 6 -2 1 -16 -11 -33 -39 -56 -122 -220 -157 -309 -19 -49 -48 -119 -65
-155 -32 -67 -43 -119 -14 -65 46 85 150 175 203 175 60 0 128 -122 137 -245
6 -77 -9 -198 -34 -269 -20 -60 -9 -53 20 11 29 67 65 195 73 268 8 63 -14
151 -63 260 -76 170 -97 258 -77 333 6 20 13 22 65 22 69 0 176 34 250 80 27
16 51 30 53 30 1 0 8 -17 14 -38 30 -101 127 -233 231 -316 103 -82 155 -159
171 -253 l8 -48 1 42 c1 54 -17 101 -91 234 -107 193 -91 285 93 539 56 77 69
131 68 275 0 66 2 134 5 150 5 23 3 21 -9 -9 -18 -46 -36 -69 -86 -106 l-37
-26 36 -1 c44 -1 72 -31 72 -76 0 -39 -84 -190 -128 -229 -42 -37 -69 -33
-100 12 -21 31 -23 43 -19 102 8 89 42 200 74 238 14 17 42 39 62 49 30 16 83
61 70 61 -10 0 -115 -43 -125 -51 -7 -5 -33 -64 -59 -130 -50 -128 -64 -201
-65 -337 0 -89 -16 -136 -48 -147 -31 -9 -50 4 -72 51 -35 72 -46 158 -27 229
8 33 13 62 11 64 -2 2 -13 -18 -25 -44 -15 -34 -23 -75 -25 -134 -2 -46 -7
-88 -12 -93 -13 -13 -91 8 -126 34 -95 70 -129 88 -168 88 l-41 0 33 -22 c48
-33 72 -71 74 -114 1 -32 -4 -41 -33 -61 -19 -13 -46 -23 -60 -23 -67 0 -195
95 -220 163 -22 59 -14 97 29 138 46 44 111 67 212 76 87 8 142 -12 197 -72
23 -25 41 -42 41 -40 0 3 -7 23 -16 45 -32 81 9 192 105 283 82 78 122 75 152
-12 l12 -34 18 49 c25 67 70 104 127 104 26 0 41 4 37 10 -11 18 5 50 33 65
32 17 18 18 -65 4z"></path>
<path class="node" id="node4" d="M1895 1168 c-20 -24 -51 -67 -67 -96 -20 -34 -35 -51 -44 -48 -19 7
-18 -66 1 -178 14 -81 43 -172 51 -163 3 2 -3 33 -12 68 -33 129 -5 281 75
399 22 33 38 60 36 60 -2 0 -20 -19 -40 -42z"></path>

</g>
<g transform="translate(0.000000,229.000000) scale(0.100000,-0.100000)" fill="#A1A1A1" stroke="none">

</g>
</svg>